<svg width="300" height="60" viewBox="0 0 300 60" fill="none" xmlns="http://www.w3.org/2000/svg">
<g transform="translate(30,30)">
  <line x1="-16" y1="-12" x2="-8" y2="-6" stroke="#fff" stroke-width=".8" opacity=".5"/>
  <line x1="-18" y1="4" x2="-10" y2="2" stroke="#fff" stroke-width=".6" opacity=".4"/>
  <line x1="-14" y1="12" x2="-8" y2="6" stroke="#fff" stroke-width=".8" opacity=".5"/>
  <circle cx="-16" cy="-12" r="1.5" fill="#fff" opacity=".6"/>
  <circle cx="-18" cy="4" r="1.2" fill="#fff" opacity=".4"/>
  <circle cx="-14" cy="12" r="1.5" fill="#fff" opacity=".6"/>
  <circle cx="-2" cy="0" r="6" fill="rgba(255,255,255,0.04)" stroke="#fff" stroke-width=".8" opacity=".7"/>
  <circle cx="-2" cy="0" r="2" fill="#fff" opacity=".8"/>
  <line x1="4" y1="0" x2="10" y2="0" stroke="#fff" stroke-width="1" opacity=".4" stroke-dasharray="3 2"/>
  <rect x="12" y="4" width="3" height="10" rx="1" fill="#fff" opacity=".3"/>
  <rect x="17" y="0" width="3" height="14" rx="1" fill="#fff" opacity=".45"/>
  <rect x="22" y="-6" width="3" height="20" rx="1" fill="#fff" opacity=".6"/>
  <polyline points="13,2 18,-2 23,-8" stroke="#fff" stroke-width="1" stroke-linecap="round" fill="none" opacity=".5"/>
  <circle cx="23" cy="-8" r="1.5" fill="#fff" opacity=".7"/>
</g>
<text x="68" y="34" font-family="Georgia,serif" font-weight="700" font-size="26" fill="#fff">NeuroNum</text>
<text x="232" y="34" font-family="monospace" font-size="12" fill="rgba(255,255,255,0.3)" letter-spacing="2">.ai</text>
</svg>
