<svg width="400" height="120" viewBox="0 0 400 120" fill="none" xmlns="http://www.w3.org/2000/svg">
<defs><linearGradient id="g" x1="0%" x2="100%"><stop stop-color="#00ffc8"/><stop offset="1" stop-color="#ff3cac"/></linearGradient></defs>
<g transform="translate(50,60)">
  <line x1="-30" y1="-24" x2="-16" y2="-13" stroke="#00ffc8" stroke-width="1" opacity=".5"/>
  <line x1="-34" y1="-6" x2="-18" y2="-3" stroke="#00ffc8" stroke-width=".8" opacity=".4"/>
  <line x1="-32" y1="10" x2="-16" y2="6" stroke="#00ffc8" stroke-width="1" opacity=".5"/>
  <line x1="-28" y1="22" x2="-14" y2="13" stroke="#00ffc8" stroke-width=".8" opacity=".4"/>
  <circle cx="-30" cy="-24" r="2.5" fill="#00ffc8" opacity=".7"/>
  <circle cx="-34" cy="-6" r="2" fill="#00ffc8" opacity=".5"/>
  <circle cx="-32" cy="10" r="2.5" fill="#00ffc8" opacity=".7"/>
  <circle cx="-28" cy="22" r="2" fill="#00ffc8" opacity=".5"/>
  <circle cx="-6" cy="0" r="12" fill="rgba(0,255,200,0.05)" stroke="#00ffc8" stroke-width="1"/>
  <circle cx="-6" cy="0" r="4" fill="#00ffc8" opacity=".7"/>
  <line x1="6" y1="0" x2="16" y2="0" stroke="url(#g)" stroke-width="1.2" stroke-dasharray="4 3" opacity=".6"/>
  <rect x="18" y="12" width="5" height="16" rx="1.5" fill="#ff3cac" opacity=".4"/>
  <rect x="26" y="4" width="5" height="24" rx="1.5" fill="#ff3cac" opacity=".55"/>
  <rect x="34" y="-6" width="5" height="34" rx="1.5" fill="#ff3cac" opacity=".7"/>
  <rect x="42" y="-16" width="5" height="44" rx="1.5" fill="#ff3cac" opacity=".9"/>
  <polyline points="20,10 28,2 36,-8 44,-18" stroke="#ff3cac" stroke-width="1.5" stroke-linecap="round" fill="none" opacity=".6"/>
  <circle cx="44" cy="-18" r="2.5" fill="#ff3cac"/>
  <line x1="8" y1="-36" x2="8" y2="36" stroke="url(#g)" stroke-width=".5" opacity=".1" stroke-dasharray="2 3"/>
</g>
<text x="110" y="54" font-family="Georgia,serif" font-weight="700" font-size="42" fill="#fff"><tspan fill="#00ffc8">Neuro</tspan><tspan fill="#ff3cac">Num</tspan></text>
<line x1="110" y1="64" x2="370" y2="64" stroke="url(#g)" stroke-width=".8" opacity=".25"/>
<text x="112" y="80" font-family="monospace" font-size="12" fill="rgba(255,255,255,0.2)" letter-spacing="5">.ai</text>
<text x="112" y="98" font-family="sans-serif" font-weight="300" font-size="9" fill="#444" letter-spacing="3">WHERE NEURONS MEET NUMBERS</text>
</svg>
